
<svg version="1.1" id="astronaut" xmlns="http://www.w3.org/2000/svg" xmlns:xlink="http://www.w3.org/1999/xlink" x="0px" y="0px"
	 viewBox="0 0 264.8 384.3" enable-background="new 0 0 264.8 384.3" xml:space="preserve">
<path fill="#FA6D37" stroke="#F9B491" stroke-miterlimit="10" d="M172.2,141.2c0,0,3-0.7,1.9-6.3c-1.1-5.6-4.1-5.5-4.1-5.5
	s6.1,2.5,7.8-1.6c1.7-4.1,22.9-16.9,22.9-16.9s1.5-3.1-2.8-3.8c0,0-9.6,7.2-10.9,4.9c0,0,15.6-7.1,13.7-12.1c0,0,3.4-3.5-16.3,6.8
	c0,0,15-7.3,13-9.6c-2.1-2.2-17.2,5.5-17.2,5.5l12.7-6.4c0,0,0.6-5.9-16.7,3.9c0,0-12.4,6.5-14.9,17.4c0,0-5.3-0.5-10.8,15
	L172.2,141.2z"/>
<g>
	<path fill="#F99462" d="M108.2,83.3c0,0-40.3-16.4-49.4,12.7c0,0,1.8,14.9,17.3,23.5c0,0,2,3.4,6.2,1.9c0,0,13.3,11,20.4,7.2
		c0,0,9.4,7.8,13.6,5.9c0,0,6.1,7.8,10.6,5.6s21.1,0.2,21.1,0.2s13,1.8,17.1-0.2c0,0-5.1-16.5-0.2-20.9c0,0-5.2,3.3-16.4-2.4
		c-11.2-5.7-8.3-6.7-12.5-4.5c0,0,1.2-4-9.6-4.3c0,0-1.6-5.5-6.8-5.9c0,0,0.7-1.3-1-3.3c-1.9-2.2-3.3-4.8-4.5-7.4
		C113.2,89.5,111.5,86.9,108.2,83.3z"/>
	<path fill="#1E1E1E" d="M163.5,139.5c0,0,1,4.2,2.2,2.6c1.2-1.6,3.5-1.8,3.5-1.8s0.5,2,1.5,1.6c1-0.4-3.5-17.1-1.4-22.5
		c0,0,0-1.8-2.4,0c-2.4,1.8-3.5-0.9-3.5-0.9S156.7,121.4,163.5,139.5z"/>
</g>
<g>
	<g>
		<g>
			<path fill="#161515" d="M123.2,309.5c0,0-0.8,3.3,1.3,6c0,0-3.7,50.4-0.6,53.3c3.2,2.9,15,4.3,15,4.3s11.1,17.4,30.8,8.6
				c16.3-7.3,8.2-13.8,4.9-15.9c-0.6-0.4-1.3-0.7-1.9-0.9c-2.6-1-11.7-5-16.6-12.9c-5.8-9.4-6-20.5-6-20.5s3.5-9.3,2.8-20.2
				c0,0,2.4-4.1,3.4-10.8l-34.7,2.5C121.6,303,121,308.7,123.2,309.5z"/>
			<path opacity="0.6" fill="#777676" d="M142.6,305.7c-3.7,0.3-6.3,3.7-5.6,7.3c2.6,14.5,9,47.7,13.7,49.6c6.1,2.5,13.2,3.6,11.3-1
				c-2-4.6-6-1.5-10.2-9.9c-1.9-3.8-4.4-12-4.3-20c0.1-9.7,3.1-19,3.1-19v0c0.6-4-2.7-7.4-6.7-7.1L142.6,305.7z"/>
			<circle fill="#161515" cx="166" cy="368.8" r="13.3"/>
		</g>
		
			<rect x="134.1" y="316.9" transform="matrix(-0.9965 8.385994e-02 -8.385994e-02 -0.9965 311.9417 622.1451)" fill="#161515" width="17.5" height="1.4"/>
		
			<rect x="134.6" y="321.8" transform="matrix(-0.7931 0.609 -0.609 -0.7931 453.4099 491.0307)" fill="#161515" width="17.5" height="1.4"/>
		
			<rect x="134.6" y="321.8" transform="matrix(-0.8487 -0.529 0.529 -0.8487 94.3463 672.0255)" fill="#161515" width="17.5" height="1.4"/>
		
			<rect x="137.7" y="329.1" transform="matrix(-0.9992 -4.072294e-02 4.072294e-02 -0.9992 274.0646 665.2783)" fill="#161515" width="12.1" height="1.4"/>
		
			<rect x="137.7" y="329.1" transform="matrix(-0.9992 -4.072294e-02 4.072294e-02 -0.9992 274.0646 665.2783)" fill="#161515" width="12.1" height="1.4"/>
		
			<rect x="138.2" y="334" transform="matrix(-0.7686 0.6397 -0.6397 -0.7686 469.2011 499.7744)" fill="#161515" width="12.1" height="1.4"/>
		
			<rect x="138.2" y="334" transform="matrix(-0.8565 -0.5161 0.5161 -0.8565 94.9918 695.8846)" fill="#161515" width="12.1" height="1.4"/>
		
			<rect x="138.6" y="339.6" transform="matrix(-0.9872 0.1594 -0.1594 -0.9872 341.7674 653.2502)" fill="#161515" width="12.1" height="1.4"/>
		
			<rect x="140.7" y="347.9" transform="matrix(-0.942 0.3357 -0.3357 -0.942 402.0874 627.6889)" fill="#161515" width="12.1" height="1.4"/>
		
			<rect x="141.7" y="351.3" transform="matrix(-0.942 0.3357 -0.3357 -0.942 405.1685 634.0262)" fill="#161515" width="12.1" height="1.4"/>
		
			<rect x="144.1" y="354.6" transform="matrix(-0.942 0.3357 -0.3357 -0.942 410.9239 639.666)" fill="#161515" width="12.1" height="1.4"/>
		
			<rect x="146.5" y="358" transform="matrix(-0.7267 0.6869 -0.6869 -0.7267 509.8142 514.5251)" fill="#161515" width="12.1" height="1.4"/>
		
			<rect x="139.7" y="344.5" transform="matrix(-0.6308 0.776 -0.776 -0.6308 505.6047 449.7329)" fill="#161515" width="12.1" height="1.4"/>
		
			<rect x="140.3" y="343" transform="matrix(-0.9535 -0.3016 0.3016 -0.9535 182.3049 715.5524)" fill="#161515" width="12.1" height="1.4"/>
	</g>
	<path fill="#FD7C3B" d="M155.4,237.5c-14.3-34.9-18.2-54.5-41.3-40.3c-23.1,14.2-33.6-2.8-33.6-2.8s0.8,13.7,3.8,19.9
		c2.9,6.3-2,3.8,3.1,12.1c0,0,5.6,3.2,9.3,0.4c0,0,3.7,3.4,7.4,2.8c0,0,2.6,7.7,6,9.6c0,0-2.5-0.6,0.6,6.9c0,0,0.2,8.4,4.7,9.8
		c0,0-0.6,2.5,2.3,5.6c0,0,0.2,4.7,2.3,6.2c0,0,0,4.9,2.5,8.1c0,0-1.7,1-0.9,10.1c0.4,5.3-2.3,10.2-6.6,13.4
		c-1.1,0.8-0.8,2.7,0.7,7.3c0,0.1,1.5,3.5,1.5,3.5c1.7,5.1,7.2,7.8,12.2,5.7l28.4-11.6c2.8-1.1,4.2-4.2,3.3-7.1
		c-0.1-0.2-0.2-0.4-0.3-0.6c-2.9-4-3.8-9.1-2.2-13.7C161.7,273.9,164,258.6,155.4,237.5z"/>
</g>
<path opacity="0.2" fill="#EAE1BD" d="M143.9,273.7C143.9,273.7,143.9,273.7,143.9,273.7c0.8-0.3,1.1-1.2,0.8-2c-0.4-1-0.8-2-1.3-3
	c-0.3-0.5-0.2-1.1,0.1-1.6c2.1-3.2,9.4-16.6,0.4-38.5c-10.4-25.3-10.5-33.2-27.3-22.8c-9.1,5.6-15.5,4.5-19.5,2.4
	c-1.1-0.6-2.5,0.3-2.3,1.6c0.7,5.4-0.8,4.7,1,10.6c0.2,0.6,0.6,1,1.2,1.1c1.1,0.2,2.4,0.3,3.5-0.2c0.5-0.2,1.1-0.1,1.5,0.2
	c0.8,0.6,2.2,1.4,3.6,1.5c0.6,0,5.6-1.5,5.8-0.9c0.5,1.3,1.6,3.7,2.9,5.1c0.4,0.4,0.5,0.9,0.4,1.4c-0.1,0.6,0,1.8,1,4.2
	c0.1,0.2,0.1,0.3,0.1,0.5c0.1,1,0.5,5.1,2.7,6.5c0.4,0.2,0.6,0.7,0.7,1.1c0.1,0.7,0.4,1.7,1.4,2.9c0.2,0.2,0.3,0.5,0.4,0.8
	c0.1,0.9,0.4,2.7,1.2,3.7c0.2,0.3,0.4,0.6,0.4,0.9c0.1,1,0.3,2.9,1.3,4.5c0.2,0.4,0.3,0.9,0.2,1.4c-0.3,0.7-0.6,2.2-0.4,5.4
	c0,0.4,0.2,0.7,0.4,1C132.8,270.5,137.1,276.6,143.9,273.7z"/>
<g>
	<path fill="#FD7C3B" d="M98.3,249.1c12.2-35.6,22.2-53-4.6-57.5c-26.8-4.5-23.4-24.3-23.4-24.3s-8.4,10.8-10.3,17.5
		c-1.9,6.7-4,1.5-5.6,11.1c0,0,1.1,10.1,5.8,10.4c0,0-4.4,0.9-1.3,3c0,0-3.1,7.5-1.8,11.1c0,0-1.5-2.1-4.1,5.6c0,0-5.3,6.5-2.9,10.5
		c0,0-2.1,1.5-1.9,5.7c0,0-2.9,3.7-2.3,6.1c0,0-3.2,3.7-3.4,7.8c0,0-5.9-0.3-11.4,7c-3.2,4.3,1.5,6.1-3.8,5.7
		c-1.3-0.1-2.4,1.5-4.3,6c0,0.1-1.2,3.6-1.2,3.7c-2.1,4.9,0.3,10.6,5.4,12.3l29.1,10c2.8,1,6-0.4,7.2-3.2c0.1-0.2,0.1-0.4,0.2-0.7
		c0.5-4.9,3.1-9.4,7.4-11.8C79.1,280.7,90.9,270.6,98.3,249.1z"/>
	<path opacity="0.2" fill="#EAE1BD" d="M65.8,268.8C65.8,268.8,65.8,268.8,65.8,268.8c0.8,0.3,1.7-0.2,1.9-0.9c0.4-1,0.7-2,1-3.1
		c0.1-0.6,0.6-1,1.1-1.2c3.7-1,18-6.3,25.7-28.7c8.9-25.9,13.9-31.9-5.5-35.1c-10.6-1.8-14.7-6.8-16.2-11c-0.4-1.2-2.1-1.4-2.8-0.3
		c-3,4.5-3.7,3-6.2,8.6c-0.2,0.5-0.2,1.1,0.2,1.6c0.7,0.9,1.6,1.8,2.8,2.1c0.5,0.1,0.9,0.6,1,1.1c0.2,1,0.8,2.5,1.8,3.5
		c0.4,0.4,5.2,2.6,5,3.2c-0.5,1.4-1.2,3.8-1.2,5.7c0,0.5-0.2,1-0.7,1.4c-0.5,0.4-1.2,1.4-2,3.8c-0.1,0.2-0.1,0.3-0.2,0.4
		c-0.6,0.8-3,4.2-2.3,6.7c0.1,0.4,0,0.9-0.2,1.3c-0.4,0.6-0.8,1.5-0.9,3.1c0,0.3-0.1,0.6-0.3,0.9c-0.5,0.7-1.5,2.3-1.5,3.6
		c0,0.3-0.1,0.7-0.3,1c-0.6,0.8-1.6,2.4-2,4.3c-0.1,0.5-0.4,0.9-0.8,1.2c-0.7,0.4-1.9,1.3-3.8,3.8c-0.2,0.3-0.4,0.7-0.3,1.1
		C59.6,259,58.8,266.5,65.8,268.8z"/>
	<g>
		<g>
			<path fill="#161515" d="M22.9,296.3c0,0-2,2.7-1.2,6c0,0-23.4,44.8-21.6,48.7c1.8,3.9,12.1,9.9,12.1,9.9s3.3,20.4,24.9,20.1
				c17.9-0.3,13-9.5,10.7-12.7c-0.4-0.6-0.9-1.1-1.4-1.6c-2-2-8.8-9.2-10.2-18.4c-1.7-10.9,2.6-21.2,2.6-21.2s6.9-7.2,10.6-17.4
				c0,0,3.8-2.8,7.4-8.6L24,289.7C24,289.7,21.2,294.7,22.9,296.3z"/>
			<path opacity="0.6" fill="#777676" d="M42.3,300.5c-3.5-1.2-7.2,0.9-8,4.5c-3.4,14.4-10.6,47.4-7,51c4.6,4.7,10.7,8.6,10.7,3.5
				c0-5-4.9-3.8-5.4-13.1c-0.2-4.2,0.7-12.8,4-20.1c3.9-8.8,10.4-16.3,10.4-16.3h0c2.1-3.4,0.5-7.9-3.3-9.2L42.3,300.5z"/>
			<circle fill="#161515" cx="38.8" cy="367.7" r="13.3"/>
		</g>
		
			<rect x="29" y="310.9" transform="matrix(-0.9484 -0.3171 0.3171 -0.9484 -25.1576 619.0255)" fill="#161515" width="17.5" height="1.4"/>
		
			<rect x="27.5" y="315.5" transform="matrix(-0.9694 0.2457 -0.2457 -0.9694 149.0513 613.8359)" fill="#161515" width="17.5" height="1.4"/>
		
			<rect x="27.5" y="315.5" transform="matrix(-0.5702 -0.8215 0.8215 -0.5702 -202.8612 526.3033)" fill="#161515" width="17.5" height="1.4"/>
		
			<rect x="27.7" y="322.4" transform="matrix(-0.9016 -0.4326 0.4326 -0.9016 -75.5351 629.1058)" fill="#161515" width="12.1" height="1.4"/>
		
			<rect x="27.7" y="322.4" transform="matrix(-0.9016 -0.4326 0.4326 -0.9016 -75.5351 629.1058)" fill="#161515" width="12.1" height="1.4"/>
		
			<rect x="26.2" y="327.1" transform="matrix(-0.959 0.2835 -0.2835 -0.959 156.0824 633.009)" fill="#161515" width="12.1" height="1.4"/>
		
			<rect x="26.2" y="327.1" transform="matrix(-0.5826 -0.8128 0.8128 -0.5826 -215.4191 544.9638)" fill="#161515" width="12.1" height="1.4"/>
		
			<rect x="24.4" y="332.4" transform="matrix(-0.9698 -0.2441 0.2441 -0.9698 -21.3243 663.5973)" fill="#161515" width="12.1" height="1.4"/>
		
			<rect x="23.1" y="340.8" transform="matrix(-0.9979 -6.424901e-02 6.424901e-02 -0.9979 36.2269 684.2549)" fill="#161515" width="12.1" height="1.4"/>
		
			<rect x="22.6" y="344.4" transform="matrix(-0.9979 -6.424901e-02 6.424901e-02 -0.9979 35.1064 691.3138)" fill="#161515" width="12.1" height="1.4"/>
		
			<rect x="23.5" y="348.4" transform="matrix(-0.9979 -6.424901e-02 6.424901e-02 -0.9979 36.6148 699.3468)" fill="#161515" width="12.1" height="1.4"/>
		
			<rect x="24.4" y="352.4" transform="matrix(-0.9392 0.3435 -0.3435 -0.9392 180.2877 674.2215)" fill="#161515" width="12.1" height="1.4"/>
		
			<rect x="23.5" y="337.3" transform="matrix(-0.8862 0.4632 -0.4632 -0.8862 212.3363 623.8468)" fill="#161515" width="12.1" height="1.4"/>
		
			<rect x="24.6" y="336.2" transform="matrix(-0.7564 -0.6541 0.6541 -0.7564 -166.4739 611.7879)" fill="#161515" width="12.1" height="1.4"/>
	</g>
</g>
<g>
	<g>
		<path fill="#8CF1F4" d="M210.6,107.6c1.1-3.8,2.5-7.8,4.3-11.8c17.7-25,49.2-50.8,49.2-50.8l-15.9-16.6l-1.6,2.2l-11.9-8.3l0,0
			l0,0l0,0l0,0l-22.9-2c0,0,0,0.2,0,0.5L192.8,10l-13.3,70.7l-31,61.8l19.6,0l11.5,3.5l-1.7,3.9l9.9,1l8.2,5.6l1.4-4.7l8.3,0.8
			C205.7,152.6,202.1,137.7,210.6,107.6z"/>
		<path fill="none" stroke="#8CAAF2" stroke-miterlimit="10" d="M248.1,28.3c0,0-69.5,112.7-70.3,121.6l27.8,2.7
			c0,0-4.3-21.8,9.2-56.8c0,0,21.4-28.2,49.2-50.8L248.1,28.3z"/>
		<polyline fill="none" stroke="#8CAAF2" stroke-miterlimit="10" points="148.5,142.6 179.6,80.7 192.8,10 211.7,20.7 168.1,142.6 
			234.6,22.2 		"/>
	</g>
	<g>
		<g>
			<path fill="none" stroke="#F20A0A" stroke-width="2" stroke-miterlimit="10" d="M184.7,64.7c0,0,0,1.9,0.8,3.4"/>
			<path fill="none" stroke="#F20A0A" stroke-width="2" stroke-miterlimit="10" d="M192.6,68.5c0.8-0.5,1.7-1.3,2.8-2.2"/>
		</g>
	</g>
	<path fill="none" stroke="#F20A0A" stroke-width="2" stroke-miterlimit="10" stroke-dasharray="7" d="M189.6,82.6
		c0,0,9-17.2,15.4-6.7"/>
	<path fill="none" stroke="#F20A0A" stroke-width="2" stroke-miterlimit="10" stroke-dasharray="7" d="M210,66.8
		c0,0,7.4,6.8,23.7-14.9"/>
	<path fill="none" stroke="#F20A0A" stroke-width="2" stroke-miterlimit="10" stroke-dasharray="7" d="M225.2,65.8
		c0,0-0.9,8,4.1,4.4"/>
	<polygon fill="#F20A0A" points="234.1,70.2 231.6,68.9 232,66.3 231,66.2 230.6,68.4 228.4,67.3 227.9,68.3 230.5,69.6 230.1,72.1 
		231.1,72.3 231.4,70.1 233.6,71.2 	"/>
	<path fill="none" stroke="#F20A0A" stroke-width="2" stroke-miterlimit="10" stroke-dasharray="7" d="M172,95.8c0,0,5.1,9,13.3-1.2
		"/>
	<path fill="none" stroke="#F20A0A" stroke-width="2" stroke-miterlimit="10" stroke-dasharray="7" d="M198.8,87c0,0,6.1,8,15.2-2.5
		"/>
	<path opacity="0.3" fill="#198410" d="M206.5,35.3c0,0-23.6,2.8-8.9,25L206.5,35.3z"/>
	<path opacity="0.3" fill="#198410" d="M164.4,110.9c0,0,8.8,6.9,14.3,2.1l-7.2,20.2c0,0-6.4,9-11.1,5.2c-4.7-3.8-7.1,1.8-7.1,1.8
		s-2.1,1.5-2.6-1.9L164.4,110.9z"/>
	<path opacity="0.3" fill="#198410" d="M181.2,106c0,0,7.1,0.1,10.5-6.2l-11.8,21.4l-5.8,4.7L181.2,106z"/>
	<path opacity="0.3" fill="#198410" d="M189.9,125.7c0,0-10.4,0-11.4,6.6c-1,6.5-1.5,8.3-3.8,7.7c-2.4-0.6-0.8,4.4,3.2,4.3l4.7-5.2
		L189.9,125.7z"/>
	<path opacity="0.3" fill="#198410" d="M194.5,94.8c0,0,7.9-3.1,7.6,0.2c-0.3,3.3-14.1,11.6-14.1,11.6L194.5,94.8z"/>
	<path opacity="0.3" fill="#198410" d="M223,43.2c0,0-12.5,0.5-15.1,12.7c-2.6,12.2-8.6,8.8-7.9,11.3c0.7,2.5,8.6,2,8.6,2L223,43.2z
		"/>
	<path opacity="0.3" fill="#198410" d="M228.4,23.9c0,0-11.2-2.8-11.8,1.4s-3.7,6.8-3.7,6.8s-0.4,6.5,3.1,5.9s5.9-4.1,7.4-0.7
		c0.5,1.2,1.4,1.4,2.3,1.2l6.6-12.1C229,25.9,228.4,23.9,228.4,23.9z"/>
	<path opacity="0.3" fill="#198410" d="M209.1,113.8c0,0-18.1,12.9-15,18.6c3.1,5.7,1.7,19.2,1.7,19.2l9.9,1
		C205.7,152.6,202.2,142.2,209.1,113.8z"/>
	<path opacity="0.3" fill="#198410" d="M246.1,60.9c0,0,3-20.3,0.6-22.5s11.4,0.3,11.4,0.3l5.9,6.2L246.1,60.9z"/>
	<path opacity="0.3" fill="#198410" d="M198.5,28.4c0,0-2.6-0.1-1.6,1.5c1,1.7,1.6,2.7,2.3,1.5s2.8-2.5,1-2.8"/>
</g>
<g>
	<path fill="#FD7C3B" d="M102.7,229.7c0,0,32.9-23.4,22.8-79.9s-10.2-65.9-10.2-65.9s-17.7,6-54.2-26.4c0,0-24.1,15-9.8,72
		c0,0,9.8,36.5,5.6,57.6c0,0,5.7,24.8,36.2,14.5C93.1,201.5,103.4,196.8,102.7,229.7z"/>
	<path fill="#0F100F" d="M66.3,51.8c0,0-9.6,5.3-4.4,10.7s34.2,30.9,53.2,26.4v-5.9C115.1,82.9,80.8,75.7,66.3,51.8z"/>
	<g>
		<g>
			<path fill="#EDEDEC" stroke="#FCF56B" stroke-miterlimit="10" d="M70.5,46.7c0,0-3.8-38.4,22.5-46c0,0,20.3-2.4,31.1,11.6
				c0,0-47,9.6-38.3,44.4c0,0,9.1,13.2,31.9,18.4l1,6c0,0-24.2,1.7-54.2-26.4L70.5,46.7z"/>
			<path fill="#0F100F" d="M82.3,38c0,0,26.6-33.6,49.1-24c0,0,23.6,36-14,64.8C117.4,78.8,80.4,70.4,82.3,38z"/>
		</g>
		<ellipse opacity="0.2" fill="#FFFFFF" cx="114.6" cy="42.1" rx="15.7" ry="20.2"/>
		<ellipse opacity="0.2" fill="#FFFFFF" cx="116.8" cy="37.5" rx="7.8" ry="10.1"/>
		<g>
			<path fill="#453461" stroke="#789EEA" stroke-miterlimit="10" d="M82.6,16.5c0-0.3,0-0.7,0.1-1c0.3-1.8,1.6-7,7.4-7
				c7,0,5.3,8.6,5.3,8.6s-0.3,5-4.3,6.6c-3.3,1.4-7.2-0.6-8.1-4.1C82.8,18.8,82.6,17.7,82.6,16.5z"/>
			<path fill="#FFFFFF" d="M84,15.8c0.1,0,0.2,0.1,0.3,0s0.1-0.1,0.2-0.2l0.9-2.1c0-0.2-0.1-0.3-0.1-0.4c0,0,0-0.1-0.1-0.1l0-0.1
				l0.8,0.3l0.5,2.4l0,0l0.5-1.3c0.1-0.2,0.1-0.3,0.1-0.4c0-0.1-0.1-0.2-0.2-0.2l0-0.1l0.8,0.3l0,0.1c-0.1,0-0.2,0-0.3,0
				c-0.1,0-0.1,0.1-0.2,0.2l-1.1,2.7l-0.1,0l-0.6-3.1l0,0l-0.7,1.8c-0.1,0.1-0.1,0.2-0.1,0.3c0,0.1,0.1,0.2,0.2,0.3l0,0.1l-0.8-0.3
				L84,15.8z"/>
			<path fill="#FFFFFF" d="M90.5,17.3c0.1,0.1,0.2,0.3,0.2,0.3c0,0.1,0,0.2,0,0.4c0,0.1-0.1,0.2-0.2,0.3c-0.1,0.1-0.2,0.1-0.4,0
				c-0.2-0.1-0.3-0.2-0.3-0.4c-0.1-0.2-0.1-0.5,0-0.8l-0.1,0l-0.5,1.1l0.1,0c0,0,0.1-0.1,0.1-0.1c0,0,0.1,0,0.1,0c0,0,0,0,0,0
				c0,0,0,0,0,0l0.1,0.1c0.1,0.1,0.1,0.1,0.2,0.2c0.1,0,0.1,0.1,0.2,0.1c0.3,0.1,0.6,0.1,0.8,0c0.2-0.1,0.4-0.3,0.5-0.6
				c0.1-0.2,0.1-0.5,0.1-0.7c0-0.1-0.1-0.1-0.1-0.2l-0.8,0.2L90.5,17.3z"/>
			<path fill="#FFFFFF" d="M91.2,18.7c0.1,0,0.2,0,0.3-0.1c0.1,0,0.2-0.2,0.3-0.3l1.8-2.2l0.1,0l-0.2,2.7c0,0.3,0,0.5,0,0.6
				c0,0.1,0.1,0.2,0.1,0.2l0,0.1l-1.2-0.5l0-0.1c0.1,0,0.2,0.1,0.2,0.1c0,0,0.1,0,0.1-0.1c0,0,0-0.1,0-0.2c0,0,0-0.1,0-0.2l0-0.3
				l-0.8-0.3c-0.1,0.2-0.2,0.3-0.2,0.3c-0.1,0.1-0.1,0.2-0.1,0.2c0,0.1,0,0.1,0,0.2c0,0,0.1,0.1,0.2,0.1l0,0.1l-0.7-0.3L91.2,18.7z
				 M92.9,18.3l0.1-1.2l0,0L92.2,18L92.9,18.3z"/>
			<path fill="#E92641" d="M93.3,15.8c0,0-9.8,3.3-10.8,3.1c-1-0.3,0.5-1.2,0.5-1.2s12.4-1.7,15.8-7.1c0,0,1.5-0.1,0,1.4
				s-2.6,3.7-5.1,4.5s-9.9,6.8-9.9,6.8s-2.2,0.2-0.4-1C85.2,21.1,93.3,15.8,93.3,15.8z"/>
			<path fill="#FFFFFF" d="M88.3,16.4l0.1-1.2l0,0l-0.7,0.9L88.3,16.4z M86.6,16.9c0.1,0,0.2,0,0.3-0.1c0.1,0,0.2-0.2,0.3-0.3
				l1.8-2.2l0.1,0l-0.2,2.7c0,0.3,0,0.5,0,0.6c0,0.1,0.1,0.2,0.1,0.2l0,0.1l-1.2-0.5l0-0.1c0.1,0,0.2,0.1,0.2,0.1s0.1,0,0.1-0.1
				c0,0,0-0.1,0-0.2c0,0,0-0.1,0-0.2l0-0.3l-0.8-0.3c-0.1,0.2-0.2,0.3-0.2,0.3c-0.1,0.1-0.1,0.2-0.1,0.2c0,0.1,0,0.1,0,0.2
				c0,0,0.1,0.1,0.2,0.1l0,0.1L86.5,17L86.6,16.9z"/>
			<path fill="#FFFFFF" d="M91.9,15.5C91.9,15.5,91.9,15.6,91.9,15.5c-0.1,0.1-0.1,0.1-0.2,0.1c0,0-0.1-0.1-0.2-0.2
				c-0.1-0.1-0.2-0.2-0.3-0.2c-0.3-0.1-0.5-0.1-0.7,0.1c-0.2,0.1-0.3,0.3-0.4,0.5C90,16,90,16.2,90,16.4c0,0.2,0.1,0.4,0.3,0.6
				l0.1,0.1l0.8-0.2c0,0-0.1-0.1-0.1-0.1l-0.2-0.3c-0.2-0.2-0.3-0.4-0.3-0.5c0-0.1,0-0.2,0-0.4c0-0.1,0.1-0.2,0.2-0.3
				c0.1-0.1,0.2-0.1,0.3,0c0.2,0.1,0.3,0.2,0.3,0.4c0.1,0.2,0.1,0.4,0,0.7l0.1,0l0.4-1L91.9,15.5z"/>
		</g>
	</g>
</g>
<g>
	<path fill="#FA6D37" stroke="#F9B491" stroke-miterlimit="10" d="M162.4,135c0,0,9.7,0,16-6.9h0c1.8-1.6,0.4-4.3,2.7-4.6
		c0.9-0.1,1.8-0.6,2.5-1.5c2.5-3.6,26-11.5,26-11.5s2.2-2.7-1.9-4.3c0,0-10.9,5-11.7,2.4c0,0,16.8-3.6,16-8.8c0,0,4.1-2.7-17.4,3.1
		c0,0,16.3-3.9,14.7-6.5c-1.5-2.6-18,1.7-18,1.7l13.8-3.5c0,0,1.9-5.6-17.2,0.1c0,0-13.5,3.6-18.3,13.7c0,0-5.1-1.6-13.8,12.3
		L162.4,135z"/>
	<g>
		<path fill="#F99462" d="M87.5,77.5c0,0-37.5-13.2-44.9,20.8c0,0-6.4,15.5,12.1,23.7c0,0,2.6,3.6,7.3,1.5c0,0,16.2,11.2,23.9,6.1
			c0,0,11.5,7.8,16.1,5.3c0,0,7.8,8.2,12.6,5.2c4.8-3,23.9-2,23.9-2s14.9,0.8,19.4-2c0,0-7.5-18.2-2.4-23.7c0,0-5.6,4.3-18.9-1
			c-13.3-5.3-10.2-6.7-14.7-3.8c0,0,0.9-4.7-11.3-3.9c0,0-2.3-6.1-8.3-6c0,0,0.7-1.5-1.5-3.7c-2.4-2.3-4.2-5.1-5.9-8
			C93.8,84.1,91.6,81.3,87.5,77.5z"/>
		<path fill="#1E1E1E" d="M156.1,135.6c0,0,1.5,4.7,2.7,2.7c1.2-1.9,3.8-2.4,3.8-2.4s0.8,2.3,1.9,1.7c1-0.6-5.8-19.1-4-25.4
			c0,0-0.1-2.1-2.7,0.3c-2.6,2.3-4.1-0.6-4.1-0.6S146.5,115.7,156.1,135.6z"/>
	</g>
</g>
</svg>
