<?xml version="1.0" encoding="utf-8"?>
<!-- Generator: Adobe Illustrator 18.1.1, SVG Export Plug-In . SVG Version: 6.00 Build 0)  -->
<!DOCTYPE svg PUBLIC "-//W3C//DTD SVG 1.1//EN" "http://www.w3.org/Graphics/SVG/1.1/DTD/svg11.dtd">
<svg version="1.1" id="Layer_1" xmlns="http://www.w3.org/2000/svg" xmlns:xlink="http://www.w3.org/1999/xlink" x="0px" y="0px"
	 viewBox="0 0 114.2 51.9" enable-background="new 0 0 114.2 51.9" xml:space="preserve">
<g>
	<g>
		<polygon fill="#FFFFFF" points="86.2,42.8 86.2,9.3 91.2,11.3 91.2,40.6 		"/>
		<g>
			<path fill="#FFFFFF" d="M51.8,51.5l6.9-7.9c-3.9-0.8-8-1.8-12.5-3.1l-5.2,9.9c-0.1,0.1-0.1,0.3-0.1,0.5c0,0.2,0,0.4,0.1,0.5
				c0.2,0.3,0.5,0.5,0.8,0.5l9.1,0C51.3,51.9,51.6,51.7,51.8,51.5z"/>
			<path fill="#FFFFFF" d="M51.8,0.3l6.9,7.9c-3.9,0.8-8,1.8-12.5,3.1l-5.2-9.9C41,1.3,40.9,1.2,40.9,1c0-0.2,0-0.4,0.1-0.5
				C41.3,0.2,41.6,0,41.9,0L51,0C51.3,0,51.6,0.1,51.8,0.3z"/>
			<path fill="#50C9EA" d="M89,26c0-8.7,1.4-13,1.8-14.2c0.1-0.2,0.3-0.4,0.5-0.5c0.2-0.1,0.5-0.1,0.7,0
				c7.7,3.5,21.3,13.5,21.8,13.9c0.2,0.2,0.4,0.4,0.4,0.7c0,0.3-0.1,0.6-0.4,0.8c-0.6,0.4-14.2,10.4-21.8,13.9
				c-0.2,0.1-0.5,0.1-0.7,0c-0.2-0.1-0.4-0.3-0.5-0.5C90.4,39,89,34.6,89,26z"/>
			<path fill="#FFFFFF" d="M35.6,29.3c0-1.6,0.1-3,0.1-3.3c0-0.2-0.1-1.6-0.1-3.3c0-4.6,0.7-5.7,1.3-6.2c0.1-0.1,0.2-0.1,0.3-0.1
				c0.6-0.2,1.2-0.4,1.7-0.6c0.3-0.1,0.6,0,0.8,0.1c0.2,0.2,0.4,0.5,0.3,0.8c-0.3,2.8-0.4,6-0.4,9.3c0,3.4,0.1,6.6,0.4,9.3
				c0,0.3-0.1,0.6-0.3,0.8c-0.2,0.2-0.5,0.2-0.8,0.1c-0.6-0.2-1.2-0.4-1.7-0.6c-0.1,0-0.2-0.1-0.3-0.1C36.3,35,35.6,33.9,35.6,29.3z
				"/>
			<path fill="#50C9EA" d="M87,42.7c0.2,0,0.4-0.1,0.7-0.1c0.5-0.1,0.9-0.4,1.1-0.9c0.1-0.3,0.2-0.5,0.2-0.8c0-0.2,0-0.4-0.1-0.6
				C87,35.6,87,27,87,26c0-1,0.1-9.6,1.9-14.2c0.1-0.2,0.1-0.4,0.1-0.6c0-0.3-0.1-0.6-0.2-0.8c-0.2-0.4-0.6-0.8-1.1-0.9
				c-0.3-0.1-0.5-0.1-0.7-0.1c-12.8-2-27.5-0.4-43.6,4.8c-0.7,0.2-1.1,0.8-1.2,1.5c-0.3,3-0.5,6.6-0.5,10.4s0.2,7.5,0.5,10.4
				c0.1,0.7,0.5,1.3,1.2,1.5C59.5,43.1,74.1,44.7,87,42.7z"/>
		</g>
		
			<linearGradient id="SVGID_1_" gradientUnits="userSpaceOnUse" x1="-499.4168" y1="-110.4887" x2="-475.6507" y2="-110.4887" gradientTransform="matrix(0.7071 0.7071 -0.7071 0.7071 283.4197 448.5242)">
			<stop  offset="2.205284e-03" style="stop-color:#F6921E"/>
			<stop  offset="1" style="stop-color:#FADF27"/>
		</linearGradient>
		<path fill="url(#SVGID_1_)" d="M29.1,30.1c-1.4-0.2-3.1-1.3-3.1-1.3s1-0.8,2.1-1.8c-0.6-0.6-1.1-1.2-1.1-1.2s0.5-0.6,1.1-1.3
			c-1.1-0.9-2.1-1.8-2.1-1.8s1.9-1.2,3.3-1.4c-2.8-2.2-5.5-3.9-11.2-3.7c-5.9,0.2-18.2,8-18.2,8s6.2,7.4,18.2,8
			C23.7,34,26.3,32.3,29.1,30.1z"/>
	</g>
	<circle fill="#FFFFFF" cx="65.2" cy="25" r="9.3"/>
</g>
</svg>
